{
    "asset" : {
        "generator" : "Khronos glTF Blender I/O v1.2.75",
        "version" : "2.0"
    },
    "scene" : 0,
    "scenes" : [
        {
            "name" : "Scene",
            "nodes" : [
                0,
                1,
                4,
                5,
                6,
                7
            ]
        }
    ],
    "nodes" : [
        {
            "name" : "Camera",
            "rotation" : [
                0.2588191032409668,
                0,
                0,
                0.9659258127212524
            ],
            "translation" : [
                0,
                129.90380859375,
                75
            ]
        },
        {
            "name" : "Logic"
        },
        {
            "mesh" : 0,
            "name" : "Sun.Flare",
            "scale" : [
                1.100000023841858,
                1.100000023841858,
                1.100000023841858
            ]
        },
        {
            "name" : "Sun.Point"
        },
        {
            "children" : [
                2,
                3
            ],
            "mesh" : 1,
            "name" : "Sun"
        },
        {
            "mesh" : 2,
            "name" : "Planet.002",
            "translation" : [
                3,
                -3,
                0
            ]
        },
        {
            "mesh" : 3,
            "name" : "Planet.001",
            "translation" : [
                3,
                0,
                0
            ]
        },
        {
            "mesh" : 4,
            "name" : "Planet.000",
            "translation" : [
                3,
                3,
                0
            ]
        }
    ],
    "materials" : [
        {
            "doubleSided" : true,
            "name" : "Sun.Flare",
            "pbrMetallicRoughness" : {}
        },
        {
            "doubleSided" : true,
            "name" : "Sun",
            "pbrMetallicRoughness" : {}
        },
        {
            "doubleSided" : true,
            "name" : "Planet.002",
            "pbrMetallicRoughness" : {}
        },
        {
            "doubleSided" : true,
            "name" : "Planet.001",
            "pbrMetallicRoughness" : {}
        },
        {
            "doubleSided" : true,
            "name" : "Planet.000",
            "pbrMetallicRoughness" : {}
        }
    ],
    "meshes" : [
        {
            "name" : "Plane",
            "primitives" : [
                {
                    "attributes" : {
                        "POSITION" : 0,
                        "NORMAL" : 1,
                        "TEXCOORD_0" : 2
                    },
                    "indices" : 3,
                    "material" : 0
                }
            ]
        },
        {
            "name" : "Sphere.004",
            "primitives" : [
                {
                    "attributes" : {
                        "POSITION" : 4,
                        "NORMAL" : 5,
                        "TEXCOORD_0" : 6
                    },
                    "indices" : 7,
                    "material" : 1
                }
            ]
        },
        {
            "name" : "Sphere.002",
            "primitives" : [
                {
                    "attributes" : {
                        "POSITION" : 8,
                        "NORMAL" : 9,
                        "TEXCOORD_0" : 10
                    },
                    "indices" : 11,
                    "material" : 2
                }
            ]
        },
        {
            "name" : "Sphere.000",
            "primitives" : [
                {
                    "attributes" : {
                        "POSITION" : 12,
                        "NORMAL" : 13,
                        "TEXCOORD_0" : 14
                    },
                    "indices" : 11,
                    "material" : 3
                }
            ]
        },
        {
            "name" : "Sphere.001",
            "primitives" : [
                {
                    "attributes" : {
                        "POSITION" : 15,
                        "NORMAL" : 16,
                        "TEXCOORD_0" : 17
                    },
                    "indices" : 11,
                    "material" : 4
                }
            ]
        }
    ],
    "accessors" : [
        {
            "bufferView" : 0,
            "componentType" : 5126,
            "count" : 4,
            "max" : [
                0,
                3,
                3
            ],
            "min" : [
                0,
                -3,
                -3
            ],
            "type" : "VEC3"
        },
        {
            "bufferView" : 1,
            "componentType" : 5126,
            "count" : 4,
            "type" : "VEC3"
        },
        {
            "bufferView" : 2,
            "componentType" : 5126,
            "count" : 4,
            "type" : "VEC2"
        },
        {
            "bufferView" : 3,
            "componentType" : 5123,
            "count" : 6,
            "type" : "SCALAR"
        },
        {
            "bufferView" : 4,
            "componentType" : 5126,
            "count" : 1712,
            "max" : [
                0.999999463558197,
                1,
                0.9999999403953552
            ],
            "min" : [
                -1.0000004768371582,
                -1,
                -1
            ],
            "type" : "VEC3"
        },
        {
            "bufferView" : 5,
            "componentType" : 5126,
            "count" : 1712,
            "type" : "VEC3"
        },
        {
            "bufferView" : 6,
            "componentType" : 5126,
            "count" : 1712,
            "type" : "VEC2"
        },
        {
            "bufferView" : 7,
            "componentType" : 5123,
            "count" : 2544,
            "type" : "SCALAR"
        },
        {
            "bufferView" : 8,
            "componentType" : 5126,
            "count" : 119,
            "max" : [
                0.9999995827674866,
                0.9999999403953552,
                0.9999997615814209
            ],
            "min" : [
                -1,
                -0.9999999403953552,
                -0.9999997615814209
            ],
            "type" : "VEC3"
        },
        {
            "bufferView" : 9,
            "componentType" : 5126,
            "count" : 119,
            "type" : "VEC3"
        },
        {
            "bufferView" : 10,
            "componentType" : 5126,
            "count" : 119,
            "type" : "VEC2"
        },
        {
            "bufferView" : 11,
            "componentType" : 5123,
            "count" : 564,
            "type" : "SCALAR"
        },
        {
            "bufferView" : 12,
            "componentType" : 5126,
            "count" : 119,
            "max" : [
                0.9999995827674866,
                0.9999999403953552,
                0.9999997615814209
            ],
            "min" : [
                -1,
                -0.9999999403953552,
                -0.9999997615814209
            ],
            "type" : "VEC3"
        },
        {
            "bufferView" : 13,
            "componentType" : 5126,
            "count" : 119,
            "type" : "VEC3"
        },
        {
            "bufferView" : 14,
            "componentType" : 5126,
            "count" : 119,
            "type" : "VEC2"
        },
        {
            "bufferView" : 15,
            "componentType" : 5126,
            "count" : 119,
            "max" : [
                0.9999995827674866,
                0.9999999403953552,
                0.9999997615814209
            ],
            "min" : [
                -1,
                -0.9999999403953552,
                -0.9999997615814209
            ],
            "type" : "VEC3"
        },
        {
            "bufferView" : 16,
            "componentType" : 5126,
            "count" : 119,
            "type" : "VEC3"
        },
        {
            "bufferView" : 17,
            "componentType" : 5126,
            "count" : 119,
            "type" : "VEC2"
        }
    ],
    "bufferViews" : [
        {
            "buffer" : 0,
            "byteLength" : 48,
            "byteOffset" : 0
        },
        {
            "buffer" : 0,
            "byteLength" : 48,
            "byteOffset" : 48
        },
        {
            "buffer" : 0,
            "byteLength" : 32,
            "byteOffset" : 96
        },
        {
            "buffer" : 0,
            "byteLength" : 12,
            "byteOffset" : 128
        },
        {
            "buffer" : 0,
            "byteLength" : 20544,
            "byteOffset" : 140
        },
        {
            "buffer" : 0,
            "byteLength" : 20544,
            "byteOffset" : 20684
        },
        {
            "buffer" : 0,
            "byteLength" : 13696,
            "byteOffset" : 41228
        },
        {
            "buffer" : 0,
            "byteLength" : 5088,
            "byteOffset" : 54924
        },
        {
            "buffer" : 0,
            "byteLength" : 1428,
            "byteOffset" : 60012
        },
        {
            "buffer" : 0,
            "byteLength" : 1428,
            "byteOffset" : 61440
        },
        {
            "buffer" : 0,
            "byteLength" : 952,
            "byteOffset" : 62868
        },
        {
            "buffer" : 0,
            "byteLength" : 1128,
            "byteOffset" : 63820
        },
        {
            "buffer" : 0,
            "byteLength" : 1428,
            "byteOffset" : 64948
        },
        {
            "buffer" : 0,
            "byteLength" : 1428,
            "byteOffset" : 66376
        },
        {
            "buffer" : 0,
            "byteLength" : 952,
            "byteOffset" : 67804
        },
        {
            "buffer" : 0,
            "byteLength" : 1428,
            "byteOffset" : 68756
        },
        {
            "buffer" : 0,
            "byteLength" : 1428,
            "byteOffset" : 70184
        },
        {
            "buffer" : 0,
            "byteLength" : 952,
            "byteOffset" : 71612
        }
    ],
    "buffers" : [
        {
            "byteLength" : 72564,
            "uri" : "data:application/octet-stream;base64,"
        }
    ]
}
